<svg width="221" height="189" viewBox="0 0 221 189" fill="none" xmlns="http://www.w3.org/2000/svg">
<path d="M152.992 1.11823L156.925 14.471L161.959 6.11762L167.072 14.471L171.084 1.11823M191.2 17.6908V2.1362H197.259C199.255 2.1362 200.396 2.63753 201.323 4.05802C202.015 5.11928 202.107 6.18879 201.822 7.68032L201.608 8.38644L201.18 9.0967C200.396 10.1621 199.826 10.4462 199.113 10.6593L198.115 10.9434L197.046 11.0144H193.481L202.677 16.6964M207.851 1V18.1882M219.235 2.10653L207.596 9.77851L220 17.0816M152.992 27.8238L156.925 41.1766L161.959 32.8231L167.072 41.1766L171.084 27.8238M191.2 44.3964V28.8417H197.259C199.255 28.8417 200.396 29.3431 201.323 30.7636C202.015 31.8247 202.107 32.8943 201.822 34.3858L201.608 35.0919L201.18 35.8023C200.396 36.8676 199.826 37.1518 199.113 37.3648L198.115 37.649L197.046 37.72H193.481L202.677 43.4021M207.851 27.7056V44.8938M219.235 28.8121L207.596 36.484L220 43.7873M48.3031 80.4184L45.8914 70.0317L44.7632 63.9382L44.281 61.7225L43.638 57.8449L42.9949 55.4906L42.191 53.2747L40.4227 49.2586L37.2074 44.6884L32.2265 39.8413L29.8122 42.4725L27.883 45.3809L26.4361 48.2892L25.4716 50.9203L24.5069 53.6902L23.5424 56.8755L22.8994 59.7837L22.4172 62.9688L21.9347 66.708L21.4554 71.6935V75.8482L21.9347 79.449L23.3845 86.3733L25.3108 95.2365L26.1147 97.7294L27.0791 100.361L28.3652 103.269L30.4552 107.7L33.995 114.625L36.2456 119.057L23.3845 125.704L29.4937 128.058L11.3272 137.476L32.2265 135.952L12.9349 141.768L27.8859 139.691L12.9349 147.585L25.6353 145.508L16.954 161.295L9.88033 171.405L6.82581 176.529L3.76841 183.315L2 191.07V195.641L2.80671 200.764L3.76841 204.919L4.73299 207.273L6.17988 209.766L8.755 212.952L10.6813 215.167L12.932 217.106L15.6649 218.906L18.7224 220.153L21.9347 220.984L25.6353 221.538L39.3001 223.616L53.2867 225L64.5403 223.616L76.1152 220.43L86.4041 213.644L92.6738 203.95L94.1898 195.641M48.3031 80.4184L49.2675 70.0317L52.0006 61.861L54.7336 58.3988L57.7881 61.861L59.878 66.708L61.968 72.8016L64.0578 78.618L65.1833 82.9112L69.3631 78.618L74.5075 75.9866L79.6519 72.8016L85.2788 71.4167L90.1016 72.109L95.7285 73.2171L99.426 72.8016L103.927 70.5857L111.644 64.4921L114.696 62.2765L115.66 61.861L116.786 61.7225L119.358 61.9994L120.004 62.2765L120.483 62.6919L122.252 64.0768L122.737 64.4921L123.055 65.0463L123.219 67.8159V68.5084L123.055 69.2008L122.094 72.109L111.644 86.2349L108.908 90.251L108.75 91.082L109.069 92.0514L109.39 92.3282H110.194L112.284 92.0514L119.036 91.082H120.004L120.805 91.3588L121.609 91.7743L122.094 92.3282L122.412 92.8824L123.219 96.3445L122.094 100.361L120.004 104.1L114.377 109.916L110.358 114.625L107.304 120.164L105.374 124.596L104.57 128.751L103.927 131.936V135.952L104.57 139.691L109.393 145.508L115.985 149.662L107.304 147.585L102.159 144.123M48.3031 80.4184L49.2675 93.4363M102.159 144.123L109.393 154.232L115.985 160.603L101.355 148.97L111.323 160.603L106.66 158.526L113.895 169.605L98.1399 152.155L111.323 171.405L102.159 166.281L115.985 206.027L117.268 207.551L119.039 208.52H123.862L128.039 206.304L129.167 206.027L130.451 205.75L131.737 205.612L133.023 205.75L134.47 206.027L135.917 206.443L137.363 207.135L138.167 207.689L138.974 208.52L139.614 209.489L140.26 211.29V213.644L139.936 215.721L138.974 217.522L136.881 219.184L134.312 220.43L131.254 221.122L128.682 221.538L125.788 221.815H122.091L119.039 221.538L115.499 221.122L113.249 220.707L111.32 219.737L107.304 217.522M102.159 144.123L98.1399 138.306M107.304 217.522L104.57 220.43H98.1399L96.2108 217.522L94.4424 213.644V208.52L94.1898 195.641M107.304 217.522L94.1898 195.641M94.1898 195.641L94.4424 194.256V184.423L93.314 180.822L91.8673 177.083L88.3304 174.036L82.2241 171.405L73.2214 169.328L64.5403 167.804L54.5728 169.605L45.7308 174.036L51.3575 176.529L42.837 182.069L48.4637 183.315L57.9489 185.669L62.1286 191.07L57.9489 195.641M85.2788 84.7116L79.6519 88.5892L76.1152 93.4363L73.2214 100.361M127.082 51.8588L134.13 27.8238L137.356 31.5308L127.082 51.8588ZM140.26 71.2874L165.241 68.5454L162.137 64.7356L140.26 71.2874ZM185.818 9.83936C185.818 14.4367 182.979 16.9451 179.795 16.9451C176.619 16.9451 173.771 14.371 173.771 9.83954C173.772 7.03861 174.548 4.98163 175.644 3.65828C176.725 2.35178 178.179 1.67459 179.795 1.67459C181.467 1.67459 182.911 2.30071 183.961 3.53444C185.031 4.79036 185.818 6.82788 185.818 9.83936ZM185.818 36.545C185.818 41.1423 182.979 43.6506 179.795 43.6506C176.619 43.6506 173.771 41.0767 173.771 36.5452C173.772 33.7442 174.548 31.6872 175.644 30.364C176.725 29.0574 178.179 28.3802 179.795 28.3802C181.467 28.3802 182.911 29.0062 183.961 30.24C185.031 31.4958 185.818 33.5335 185.818 36.545Z" stroke="#1E1E1E" stroke-width="3"/>
</svg>
